<?xml version="1.0" standalone="no"?>
<!DOCTYPE svg PUBLIC "-//W3C//DTD SVG 20010904//EN"
 "http://www.w3.org/TR/2001/REC-SVG-20010904/DTD/svg10.dtd">
<svg version="1.0" xmlns="http://www.w3.org/2000/svg"
 width="100.000000pt" height="100.000000pt" viewBox="0 0 100.000000 100.000000"
 preserveAspectRatio="xMidYMid meet">
<metadata>
Created by potrace 1.14, written by Peter Selinger 2001-2017
</metadata>
<g transform="translate(0.000000,100.000000) scale(0.100000,-0.100000)"
fill="#000000" stroke="none">
<path d="M400 994 c-14 -3 -34 -9 -45 -13 -79 -34 -125 -57 -125 -63 0 -5 -6
-8 -13 -8 -7 0 -20 -8 -28 -17 -9 -10 -25 -25 -35 -35 -34 -29 -64 -66 -64
-77 0 -6 -3 -11 -8 -11 -4 0 -18 -24 -31 -52 -13 -29 -28 -64 -35 -77 -15 -32
-15 -250 0 -282 7 -13 22 -48 35 -76 13 -29 27 -53 31 -53 5 0 8 -5 8 -11 0
-11 30 -48 64 -77 10 -10 26 -25 35 -34 8 -10 21 -18 28 -18 7 0 13 -3 13 -8
0 -4 24 -18 53 -31 28 -13 63 -28 76 -35 32 -15 250 -15 282 0 13 7 48 22 77
35 28 13 52 27 52 31 0 5 6 8 13 8 7 0 20 8 28 18 9 9 25 24 35 34 34 29 64
66 64 77 0 6 3 11 8 11 4 0 18 24 31 53 13 28 28 63 35 76 6 14 11 74 11 141
0 67 -5 127 -11 141 -7 13 -22 48 -35 77 -13 28 -27 52 -31 52 -5 0 -8 5 -8
11 0 11 -30 48 -64 77 -10 10 -26 25 -35 35 -8 9 -21 17 -28 17 -7 0 -13 3
-13 8 0 4 -24 18 -52 31 -29 12 -62 28 -72 33 -21 11 -204 20 -246 12z"/>
</g>
</svg>
